<?xml version="1.0" encoding="UTF-8"?>
<svg id="Livello_1" data-name="Livello 1" xmlns="http://www.w3.org/2000/svg" viewBox="0 0 1080 1080">
  <defs>
    <style>
      .cls-1 {
        fill: #2c1c0a;
      }

      .cls-1, .cls-2 {
        stroke-width: 0px;
      }

      .cls-2 {
        fill: #a68b53;
      }
    </style>
  </defs>
  <g>
    <path class="cls-1" d="M650.72,318.33c2.05,3.85,4.19,7.07,5.54,10.61,2.28,5.98,2.8,12.24,1.27,18.55-1.17,4.84-1.16,9.39.28,14.42,3.31,11.66,2.64,23.68,0,35.39-1.57,6.98-5.9,12.44-12.48,16.02-8.13,4.42-16.95,6.01-25.91,6.64-11.7.82-23.39-.11-34.78-3.02-3.42-.87-6.06-.67-8.61,1.78-8.9,8.55-17.86,17.05-27.42,26.15,2.82,1.76,4.95,3.29,7.26,4.47,3.56,1.81,5.37,4.33,5.27,8.54-.18,8.32.1,16.66.03,24.98-.05,6.53-2.25,7.73-7.82,4.2-12.16-7.69-24.21-15.56-36.34-23.29-34.89-22.22-69.81-44.41-104.71-66.61-1.9-1.21-3.85-2.34-5.63-3.71-3.15-2.43-3.74-4.82-1-7.32,5.91-5.39,9.82-12.97,17.77-16.16,1.07-.43,1.92-1.86,2.48-3.02,1.96-4.02,3.74-8.13,5.67-12.37-8.99-10.76-12.92-23.7-17.57-36.35-6.66-18.14-13.52-36.21-20.42-54.26-2.35-6.14-3.86-12.39-4.3-18.96-.16-2.39-1.01-4.8-1.93-7.04-1.95-4.79-2.4-9.4-.35-14.38.98-2.36,1.04-5.23.98-7.86-.07-3.9.2-7.62,2.27-11.05,1.71-2.84,2.07-5.84,1.11-9.08-1.34-4.54-.76-9.03,1.59-13.03,1.47-2.5,1.84-4.98,1.83-7.71-.03-6.08,1.54-11.56,6.2-15.82.5-.45,1.16-.9,1.36-1.48,2.51-7.4,8.3-12.68,12.28-19.12,2.43-3.92,5.26-7.6,9.65-9.05,4.39-1.45,7.32-4.34,9.92-7.73,5.88-7.67,13.27-11.65,23.21-11.15,3.39.17,7.03-1.2,10.29-2.52,5.81-2.35,11.57-3.28,17.78-1.95,2.06.44,4.41,0,6.54-.46,2.4-.53,4.69-1.54,7.03-2.34,7.5-2.54,14.95-2.89,22.36.4,3.78,1.68,7.74,2.04,11.87,1.77,9-.58,17.92-.61,26.59,2.87,2.78,1.11,6.19.96,9.3.87,9.89-.3,18.56,2.37,25.98,9.18,2.08,1.92,4.88,3.28,7.57,4.27,8.34,3.09,15.06,7.88,18.92,16.19.84,1.81,2.03,3.53,3.33,5.05,6.08,7.12,9.09,15.51,9.81,24.65.51,6.38-1.59,12.4-4.41,18.61,3.71,8.83,7.35,17.99,11.39,26.99,5.6,12.49,7.88,25.32,4.4,38.74-1.53,5.89-.22,11.02,2.63,16.11,3.41,6.08,6.79,12.18,9.83,18.45,1.85,3.82,3.42,7.87,4.44,11.99,2.62,10.54-3.02,17.11-10.88,18.25-.42.06-.8.36-1.5.7ZM561.63,191.44c-.45,5.98-1.97,11.54,2.01,16.98,2.84,3.89,3.28,8.86,2.53,13.65-2.67,17.12-23.78,32.47-40.26,24.42-6.42-3.13-16.16,4.67-22.38,8.24,1.77,2.21,3.28,3.6,4.11,5.33.45.93.17,2.82-.54,3.54-.7.72-2.47.92-3.55.6-1.2-.35-2.1-1.63-3.23-2.36-3.03-1.98-6.13-3.66-9.94-3.73-9.94-.18-17.76,7.24-18.62,17.51-1.46,17.36,9.79,33.7,24.99,38.18,1.29.38,2.81.6,3.74,1.43,1.02.9,2.17,2.5,2.05,3.68-.21,2.09-2.15,2.82-4.12,2.26-2.37-.67-4.72-1.51-6.98-2.5-3.61-1.6-7.14-3.39-11.65-5.55,0,3.31-.15,5.74.03,8.14.57,7.75-2.11,14.59-5.76,21.15-1.31,2.35-3.07,4.45-4.38,6.8-2.81,5.02-7.22,7.14-12.72,7.56-5.15.39-10.28.99-15.43,1.24-2.49.12-4.4.83-5.53,3.08-2.1,4.16-4.13,8.35-6.24,12.63,1.79,1.39,2.93,2.46,4.24,3.25,5.59,3.36,11.25,6.59,16.84,9.94,28.75,17.17,57.49,34.36,86.25,51.54,5.04,3.01,5.65,2.93,9.9-1.07,7.21-6.78,14.42-13.55,21.57-20.39.89-.85,1.42-2.09,2.38-3.56-1.61-.76-2.78-1.3-3.91-1.87-62.6-31.73-53.91-127.49-53.91-127.49,3.82.19,10.58.96,14.4.9,2.87-.04,4.64,1.16,5.38,4.02,1.18,4.57,2.6,9.07,3.75,13.64,6.62,26.34,44.81,44.22,75.3,16.12,9.57-8.82,23.1-10.93,36.5-8.05.65.14,1.35.13,2.02.12,4.12-.07,6.64-2.07,6.3-6.14-.33-3.95-1.23-8.04-2.83-11.65-2.82-6.36-6.12-12.53-9.65-18.53-4.41-7.5-6.37-15.11-4.23-23.83,2.47-10.06,1.66-20.05-2.56-29.65-.9-2.06-1.61-4.2-2.5-6.26-3.28-7.6-6.6-15.18-9.87-22.66-1.64,0-2.84-.29-3.83.05-6.07,2.03-12.05,1.25-17.88-.69-4.44-1.48-8.77-1.51-13.19-.4-6,1.51-11.95,1.59-17.98.02-3.24-.84-6.62-1.28-10.63.41ZM559.6,219.11c.09-7.22-4.3-12.93-11.16-15.07-13.15-4.1-28.25,6.35-30.13,18.83-.69,4.59-2.64,7.25-6.39,9.43-13.8,8.02-27.51,16.21-41.27,24.3-15.7,9.23-31.43,18.41-47.12,27.65-1.13.67-2.55,1.45-3,2.53-.51,1.23-.61,3.23.08,4.19.69.95,2.6,1.43,3.95,1.37,1.23-.05,2.45-1.04,3.61-1.72,11.29-6.54,22.56-13.09,33.83-19.66,2.55-1.49,4.43-3.47,6.02-6.12,5.34-8.94,13.11-14.07,23.91-13.4,3.12.19,5.69-.83,8.26-2.35,5.23-3.08,10.56-5.99,15.78-9.1,3.55-2.11,6.77-2.39,10.78-.58,9.82,4.43,21.68.82,28.14-7.96,2.71-3.69,4.89-7.57,4.73-12.35ZM610.07,352.44c0,.56-.16,1.26.02,1.86,3.24,10.64,13.33,15.5,24.63,11.9,7.28-2.32,8.75-5.41,6.04-13.66-2.47.19-5.08.49-7.7.56-3.28.08-6.59.21-9.83-.17-2.62-.31-5.19-1.25-7.73-2.08-2.18-.71-3.92-.36-5.42,1.6Z"/>
    <path class="cls-1" d="M609.69,244.75c-12.57-1.48-23.65,2.02-33.62,9.52-1.4,1.05-3.11,1.88-4.81,2.31-2.58.65-4.51-1.65-3.4-4.07.83-1.81,2.04-3.53,3.4-5,11.51-12.42,25.04-20.44,42.7-19.08,3.12.24,6.27.72,9.28,1.54,4.38,1.2,5.86,3.6,5.54,7.99-.29,3.96-2.52,6.36-7.04,6.73-4.02.33-8.09.07-12.05.07Z"/>
    <path class="cls-1" d="M615.16,257.37c.75,7.12-.33,13.24-7.93,15.2-6.02,1.55-9.63-2.2-12.6-7.36-1.84.72-3.59,1.77-5.45,2.01-1.35.18-3.36-.3-4.11-1.25-.73-.92-.8-3.17-.15-4.2,1.26-2.01,2.94-4.03,4.94-5.24,8.94-5.41,18.62-7.3,28.99-5.37,2.16.4,4,1.03,4.22,3.5.18,1.99-1.67,2.99-4.98,2.89-.81-.02-1.63-.1-2.92-.18Z"/>
    <path class="cls-1" d="M552.1,224.27c-2.97,7.4-13.85,12.67-21.46,10.52-2.73-.77-5.06-2.04-6.6-4.5-.92-1.48-1.08-2.99.3-4.24,1.29-1.16,2.46-.43,3.66.41,6.04,4.26,11.62,3.8,16.53-1.25,2.66-2.74,3.76-5.87,2.65-9.63-.27-.92-2.11-4.49.89-4.96.54-.08,1.57-.04,2.11.37,4.11,3.1,2.71,11.33,1.92,13.28Z"/>
  </g>
  <g>
    <path class="cls-1" d="M246.86,668.43c-.29-.87-.63-1.78-1.03-2.74-.4-.96-.92-1.84-1.56-2.64-.64-.8-1.43-1.46-2.38-1.97-.95-.51-2.12-.77-3.53-.77-1.9,0-3.39.36-4.49,1.07s-1.92,1.69-2.48,2.95c-.56,1.26-.92,2.77-1.07,4.51-.15,1.75-.23,3.66-.23,5.73,0,2.73.16,4.99.47,6.78.31,1.79.8,3.2,1.46,4.25.66,1.05,1.52,1.79,2.57,2.2,1.06.42,2.31.63,3.77.63,1.17,0,2.23-.24,3.18-.71.95-.47,1.79-1.09,2.52-1.87.73-.77,1.34-1.66,1.83-2.66.49-1,.86-2.04,1.09-3.12h.62v8.36h-.62c-.13-.31-.29-.53-.47-.65-.18-.12-.45-.18-.82-.18-.31,0-.71.08-1.21.22s-1.06.3-1.7.47-1.33.33-2.09.47c-.76.14-1.55.21-2.38.21-1.9,0-3.73-.37-5.5-1.12-1.77-.75-3.32-1.77-4.66-3.07-1.34-1.3-2.41-2.83-3.22-4.59-.81-1.76-1.21-3.67-1.21-5.71,0-2.24.45-4.26,1.34-6.07.9-1.81,2.05-3.36,3.46-4.65,1.4-1.29,2.97-2.28,4.7-2.97,1.73-.7,3.42-1.04,5.09-1.04.83,0,1.61.08,2.32.24.71.15,1.38.32,1.99.49s1.16.34,1.66.49.91.24,1.25.24c.36,0,.63-.04.82-.14.18-.09.31-.32.39-.69h.63v8.04h-.51Z"/>
    <path class="cls-1" d="M292.78,660.39v.56h-3.59v12.92h11.28v-12.92h-3.59v-.56h12.84v.56h-3.59v26.95h3.59v.55h-12.84v-.55h3.59v-13.48h-11.28v13.48h3.59v.55h-12.83v-.55h3.59v-26.95h-3.59v-.56h12.83Z"/>
    <path class="cls-1" d="M364.51,660.39v6.74h-.51c-.13-.45-.35-1.02-.66-1.72-.31-.69-.75-1.37-1.31-2.03-.56-.65-1.28-1.23-2.17-1.72-.88-.48-1.96-.73-3.24-.73h-6.2v12.18h2.19c.96,0,1.77-.14,2.44-.42.66-.27,1.21-.67,1.66-1.18.44-.51.81-1.13,1.09-1.85.29-.72.52-1.53.7-2.42h.51v12.25h-.51c-.18-.76-.4-1.5-.65-2.21s-.58-1.33-.99-1.87c-.42-.54-.93-.97-1.54-1.28s-1.37-.47-2.28-.47h-2.61v14.23h6.4c1.2,0,2.28-.2,3.24-.61s1.81-.98,2.56-1.72,1.36-1.6,1.85-2.58.87-2.04,1.13-3.17h.51v8.63h-24.93v-.55h3.59v-26.95h-3.59v-.56h23.33Z"/>
    <path class="cls-1" d="M398.02,660.94v-.56h23.06v6.74h-.51c-.36-.95-.76-1.8-1.19-2.56-.43-.76-.93-1.41-1.5-1.95s-1.24-.95-2.01-1.24c-.77-.29-1.67-.43-2.71-.43h-5.89v12.69h2.19c.96,0,1.77-.14,2.44-.41.66-.28,1.21-.67,1.66-1.18.44-.52.81-1.13,1.09-1.85.29-.73.52-1.53.7-2.42h.51v12.25h-.51c-.18-.76-.4-1.5-.65-2.2s-.58-1.34-.99-1.87c-.42-.54-.93-.96-1.54-1.28-.61-.31-1.37-.47-2.28-.47h-2.61v13.72h3.63v.55h-12.87v-.55h3.59v-26.95h-3.59Z"/>
    <path class="cls-1" d="M493.8,687.9l11.63-28.61h1.05l12.29,28.61h3.35v.55h-13.11v-.55h3.63l-4.52-10.56h-9.36l-4.33,10.56h3.47v.55h-7.37v-.55h3.28ZM498.95,676.78h8.97l-4.6-10.76-4.37,10.76Z"/>
    <path class="cls-1" d="M559.3,660.94c-.96,0-1.82.1-2.57.29-.75.2-1.43.54-2.03,1.03-.6.48-1.13,1.16-1.6,2.03s-.9,1.97-1.29,3.31h-.51v-7.21h24.46v7.21h-.51c-.39-1.34-.82-2.44-1.29-3.31-.47-.87-1-1.54-1.59-2.03-.6-.49-1.28-.83-2.03-1.03-.76-.19-1.62-.29-2.58-.29h-1.4v26.95h3.59v.55h-12.84v-.55h3.59v-26.95h-1.41Z"/>
    <path class="cls-1" d="M659.68,660.39v.56h-3.59v12.92h11.28v-12.92h-3.59v-.56h12.84v.56h-3.59v26.95h3.59v.55h-12.84v-.55h3.59v-13.48h-11.28v13.48h3.59v.55h-12.83v-.55h3.58v-26.95h-3.58v-.56h12.83Z"/>
    <path class="cls-1" d="M709.63,668.43c.9-1.81,2.05-3.36,3.45-4.65,1.4-1.29,2.97-2.28,4.72-2.97,1.74-.7,3.45-1.04,5.11-1.04,1.79,0,3.57.34,5.33,1.02,1.75.68,3.31,1.65,4.68,2.91,1.36,1.26,2.47,2.79,3.31,4.6.85,1.8,1.27,3.83,1.27,6.09,0,1.97-.4,3.84-1.19,5.61-.8,1.78-1.86,3.33-3.2,4.67-1.34,1.34-2.89,2.4-4.65,3.17s-3.61,1.16-5.56,1.16-3.77-.37-5.54-1.12-3.32-1.77-4.66-3.07c-1.34-1.3-2.41-2.83-3.22-4.59-.81-1.76-1.21-3.67-1.21-5.71,0-2.24.45-4.26,1.35-6.07ZM715.11,681.29c.31,1.8.8,3.23,1.46,4.29.66,1.07,1.52,1.81,2.57,2.23,1.06.42,2.31.63,3.77.63,1.92,0,3.43-.36,4.52-1.08s1.91-1.72,2.46-3c.55-1.28.89-2.78,1.03-4.53s.21-3.64.21-5.7c0-1.84-.05-3.59-.18-5.26-.12-1.67-.45-3.14-1-4.41-.54-1.27-1.37-2.28-2.47-3.03-1.1-.75-2.63-1.12-4.58-1.12-1.82,0-3.28.35-4.37,1.04s-1.92,1.68-2.5,2.94-.95,2.76-1.13,4.49c-.18,1.74-.27,3.64-.27,5.72,0,2.73.16,5,.47,6.79Z"/>
    <path class="cls-1" d="M779.17,660.39l6.75,19.63h.08l6.87-19.63h9.75v.56h-3.59v26.95h3.59v.55h-12.8v-.55h3.55v-26.95h-.08l-9.6,27.5h-.63l-9.63-27.5h-.08v26.95h3.59v.55h-7.8v-.55h3.59v-26.95h-3.59v-.56h10.03Z"/>
    <path class="cls-1" d="M857.38,660.39v6.74h-.51c-.13-.45-.35-1.02-.67-1.72-.31-.69-.75-1.37-1.31-2.03-.56-.65-1.28-1.23-2.17-1.72-.88-.48-1.96-.73-3.24-.73h-6.2v12.18h2.19c.96,0,1.77-.14,2.44-.42.67-.27,1.21-.67,1.66-1.18.44-.51.8-1.13,1.09-1.85.29-.72.52-1.53.7-2.42h.51v12.25h-.51c-.18-.76-.4-1.5-.64-2.21s-.58-1.33-1-1.87-.93-.97-1.54-1.28-1.37-.47-2.28-.47h-2.62v14.23h6.4c1.19,0,2.28-.2,3.24-.61s1.81-.98,2.56-1.72,1.36-1.6,1.85-2.58.87-2.04,1.13-3.17h.51v8.63h-24.93v-.55h3.59v-26.95h-3.59v-.56h23.33Z"/>
  </g>
  <g>
    <path class="cls-2" d="M100.64,613.89v-1.17c4.57-.13,6.85-3.75,6.85-11v-61.88c0-6.6-2.28-9.83-6.85-9.83v-1.3h47.45c8.37,0,15.35,2.46,20.81,7.38,5.45,4.92,8.12,11.26,8.12,19.16-.63,9.32-6.22,17.22-16.75,23.56s-23.47,10.62-38.57,12.56v10.36c0,3.49.51,6.08,1.52,8.02.89,1.95,2.79,2.98,5.71,2.98v1.17h-28.29ZM152.4,576.87c8.12-5.96,12.18-12.69,12.18-20.32-.13-4.53-1.39-8.54-4.06-12.3-2.66-3.75-6.09-6.73-10.4-9.06-4.44-2.2-9.39-3.37-15.1-3.37-2.41,0-4.57.13-6.6.39-2.03.39-3.68,1.17-4.82,2.46-1.14,1.3-1.78,3.37-1.9,6.22v46.99c12.31-1.42,22.58-5.05,30.7-11Z"/>
    <path class="cls-2" d="M235.26,613.11c-2.79-.52-4.44-2.07-4.95-4.79-.63-2.72-.89-7.25-.89-13.59v-17.48c-1.39,8.16-3.68,14.89-6.72,20.2-3.05,5.44-6.47,9.58-10.15,12.29-3.68,2.72-7.23,4.15-10.53,4.15s-6.34-1.56-8.75-4.53c-2.41-2.98-3.68-7.38-3.68-13.46,0-23.69-.13-36.38-.25-38.06-.51-3.5-2.92-5.3-7.36-5.3v-1.17h26.77v1.17c-4.57,0-6.85,3.5-6.85,10.62v28.6c0,4.79.76,8.28,2.28,10.62,1.4,2.46,3.3,3.63,5.46,3.63,2.79,0,5.71-1.95,8.88-5.83,3.42-5.05,6.09-11.39,7.99-19.16,1.9-7.64,2.92-13.46,2.92-17.48,0-7.25-2.41-10.87-7.1-11v-1.17h26.77v1.17c-2.41,0-4.06.38-5.08,1.29-1.01.91-1.65,2.07-1.9,3.5s-.38,8.93-.38,22.52.13,22.01.38,24.2c.25,2.2.89,4.15,1.9,5.7,1.02,1.69,2.67,2.72,5.08,3.11v1.03c-6.47,0-11.17-.26-13.83-.78Z"/>
    <path class="cls-2" d="M255.18,626.96v-9.83h1.65c0,4.4,2.41,8.41,7.36,11.91,4.82,3.5,10.53,5.3,17.13,5.3,3.68,0,7.11-.78,10.28-2.2,3.04-1.42,5.58-3.62,7.48-6.6,1.9-2.97,2.79-6.99,2.79-11.78v-9.83c-2.54,6.6-7.36,9.83-14.46,9.83-7.61,0-13.83-1.42-18.65-4.27-4.95-2.85-8.5-6.6-10.78-11.13-2.41-4.53-3.55-9.32-3.55-14.36,0-8.03,2.79-15.4,8.5-22.14,5.71-6.6,13.83-10.23,24.61-10.62h34c-4.06,1.3-6.34,4.53-6.98,9.71-.25,2.33-.38,18.9-.38,49.84,0,5.05-1.52,9.58-4.69,13.46-3.17,4.01-7.23,6.99-12.18,9.19-4.95,2.2-10.4,3.23-16.11,3.23-11.04,0-19.67-3.23-26.01-9.71ZM295.4,609.22c1.9-1.55,3.42-3.62,4.44-6.08,1.01-2.46,1.65-5.05,2.03-7.9v-25.37c0-4.92-.63-8.54-1.78-10.87s-2.79-3.88-4.95-4.53-4.69-1.03-7.61-1.03c-4.44,0-8.25,1.42-11.29,4.4-3.17,2.98-5.46,6.86-7.11,11.52s-2.41,9.45-2.41,14.5.76,9.19,2.28,13.33c1.39,4.28,3.68,7.64,6.85,10.36,3.05,2.72,6.98,4.01,11.67,4.01,3.3,0,5.96-.78,7.86-2.33Z"/>
    <path class="cls-2" d="M324.59,613.89v-1.17c4.95-.13,7.36-3.75,7.36-11,0-39.74-.13-60.84-.38-63.04-.63-5.18-2.92-8.03-6.98-8.8v-1.17c6.47,0,11.17.26,13.96.78,2.67.52,4.32,2.07,4.95,4.79.51,2.72.76,7.25.76,13.72v53.72c0,7.38,2.28,11,6.98,11v1.17h-26.64Z"/>
    <path class="cls-2" d="M356.19,613.89v-1.17c4.82-.13,7.23-3.75,7.23-11,0-24.73-.13-38.32-.26-40.52-.51-5.05-2.79-8.02-6.98-8.8v-1.03c6.47,0,11.16.26,13.83.78,2.66.52,4.31,2.07,4.95,4.79.51,2.72.76,7.25.76,13.6v31.2c.13,7.38,2.41,11,7.1,11v1.17h-26.64ZM365.7,541.4c-1.14-1.42-1.78-3.11-1.78-5.18s.63-3.89,1.78-5.31c1.14-1.42,2.54-2.2,4.19-2.2s3.05.78,4.19,2.2c1.14,1.42,1.65,3.24,1.65,5.31s-.51,3.75-1.65,5.18c-1.14,1.42-2.54,2.2-4.19,2.2s-3.04-.78-4.19-2.2Z"/>
    <path class="cls-2" d="M391.96,609.48c-3.42-2.85-5.07-6.34-5.07-10.35,0-3.37,1.27-6.86,3.81-10.49,2.54-3.49,6.34-6.73,11.54-9.71,2.66-1.42,5.45-2.85,8.37-4.27,5.07-2.46,9.52-4.79,13.32-7.25,3.68-2.33,5.58-4.79,5.58-7.38s-.76-4.27-2.28-4.91c-1.65-.65-4.19-1.04-7.61-1.04l-10.15.13c-4.06,0-7.23,1.03-9.64,2.97-2.41,2.07-3.68,5.05-3.68,8.81h-1.52v-14.76h27.4c7.48,0,12.81,1.3,15.86,3.89,3.04,2.72,4.57,7.77,4.57,15.27v26.41c0,3.75.51,7.12,1.65,9.97,1.02,2.85,3.43,4.79,7.11,5.7v1.29h-5.71c-3.93,0-6.98-1.16-9.26-3.49-2.41-2.33-4.06-4.92-5.08-7.64-1.14-2.72-1.65-4.79-1.65-6.08-1.14,4.79-3.8,8.8-7.74,11.91-3.93,3.24-8.25,4.92-12.81,5.3l-2.41.13c-6.34,0-11.17-1.42-14.59-4.4ZM419.87,604.95c2.67-1.29,4.95-3.36,6.85-6.08,1.9-2.72,2.79-6.22,2.79-10.36v-23.56c-1.52,1.81-4.31,4.15-8.37,6.86-2.92,2.07-5.96,4.4-9.13,6.86-3.17,2.46-5.84,5.18-7.99,8.16-2.16,2.97-3.3,6.21-3.3,9.58,0,4.4,1.52,7.51,4.69,9.19,1.9.91,3.93,1.42,6.34,1.42,2.67,0,5.33-.65,8.12-2.07Z"/>
    <path class="cls-2" d="M487.76,613.89v-1.17c4.44,0,6.72-3.36,6.72-9.97v-61.87c0-7.25-2.28-10.87-6.72-10.87v-1.3h72.06l-17.89,26.41h-3.17l1.78-2.98c3.94-6.47,5.96-11.13,5.96-13.85,0-4.27-4.06-6.48-12.31-6.48h-18.14c-4.69,0-7.11,3.63-7.23,11.01v17.48h11.67c2.79,0,4.82-.52,6.22-1.42,2.03-1.42,3.05-4.01,3.05-7.51h2.03v22.78h-2.03c0-1.42-.13-2.72-.51-4.14-.89-3.24-3.81-4.79-8.75-4.79h-11.67v36.51c0,7.25,2.28,10.87,6.85,11v1.17h-27.91Z"/>
    <path class="cls-2" d="M563.76,613.89v-1.17c4.95-.13,7.36-3.75,7.36-11,0-39.74-.13-60.84-.38-63.04-.63-5.18-2.92-8.03-6.98-8.8v-1.17c6.47,0,11.17.26,13.95.78,2.67.52,4.32,2.07,4.95,4.79.51,2.72.76,7.25.76,13.72v53.72c0,7.38,2.28,11,6.98,11v1.17h-26.64Z"/>
    <path class="cls-2" d="M600.18,609.48c-3.42-2.85-5.07-6.34-5.07-10.35,0-3.37,1.27-6.86,3.81-10.49,2.53-3.49,6.34-6.73,11.54-9.71,2.66-1.42,5.45-2.85,8.37-4.27,5.07-2.46,9.52-4.79,13.32-7.25,3.68-2.33,5.58-4.79,5.58-7.38s-.76-4.27-2.28-4.91c-1.65-.65-4.19-1.04-7.61-1.04l-10.15.13c-4.06,0-7.23,1.03-9.64,2.97-2.41,2.07-3.68,5.05-3.68,8.81h-1.52v-14.76h27.4c7.48,0,12.81,1.3,15.86,3.89,3.04,2.72,4.56,7.77,4.56,15.27v26.41c0,3.75.51,7.12,1.65,9.97,1.02,2.85,3.43,4.79,7.11,5.7v1.29h-5.71c-3.93,0-6.98-1.16-9.26-3.49-2.41-2.33-4.06-4.92-5.08-7.64-1.14-2.72-1.65-4.79-1.65-6.08-1.14,4.79-3.8,8.8-7.73,11.91-3.94,3.24-8.25,4.92-12.81,5.3l-2.41.13c-6.34,0-11.17-1.42-14.59-4.4ZM628.09,604.95c2.67-1.29,4.95-3.36,6.86-6.08,1.9-2.72,2.79-6.22,2.79-10.36v-23.56c-1.52,1.81-4.31,4.15-8.37,6.86-2.92,2.07-5.96,4.4-9.13,6.86-3.17,2.46-5.84,5.18-7.99,8.16-2.16,2.97-3.3,6.21-3.3,9.58,0,4.4,1.52,7.51,4.69,9.19,1.9.91,3.93,1.42,6.34,1.42,2.67,0,5.33-.65,8.12-2.07Z"/>
    <path class="cls-2" d="M669.45,589.55c-4.69-10.23-7.99-19.03-10.02-26.4-1.52-7.12-3.68-10.62-6.6-10.62v-1.17h23.22v1.17c-2.41,0-3.68,1.03-3.68,3.23,0,1.42.51,3.89,1.52,7.51,1.9,6.86,4.56,14.24,7.99,22.14,3.43,7.89,6.73,13.72,9.77,17.48,4.06-5.05,7.87-11.4,11.42-19.03,5.46-12.04,8.25-20.45,8.25-25.11,0-.78-.13-1.68-.38-2.72-.51-2.33-2.66-3.5-6.21-3.5v-1.17h16.49v1.17c-1.65,0-2.92.38-3.81,1.29-1.65,1.42-3.05,4.53-4.06,9.32-4.82,19.8-14.08,37.02-27.91,51.52-5.96-6.6-11.42-14.89-15.99-25.11Z"/>
    <path class="cls-2" d="M844.79,613.11c-2.79-.52-4.44-2.07-4.95-4.79-.64-2.72-.89-7.25-.89-13.59v-17.48c-1.4,8.16-3.68,14.89-6.72,20.2-3.05,5.44-6.47,9.58-10.15,12.29-3.68,2.72-7.23,4.15-10.53,4.15s-6.34-1.56-8.75-4.53c-2.41-2.98-3.68-7.38-3.68-13.46,0-23.04-.13-35.34-.26-37.02-.51-3.5-2.91-5.31-7.36-5.31-4.19,0-7.1.39-8.63,1.17-1.52.91-2.92,2.2-4.32,3.88,3.93,3.24,6.85,7.12,8.75,11.52,1.91,4.53,2.92,9.06,2.92,13.85,0,5.05-1.14,9.83-3.55,14.36-2.41,4.54-5.96,8.28-10.91,11.13-4.95,2.98-11.17,4.4-18.65,4.4s-13.7-1.42-18.65-4.4c-4.95-2.85-8.5-6.6-10.91-11.13-2.41-4.53-3.56-9.32-3.56-14.36,0-5.31,1.27-10.49,3.81-15.54,2.53-5.05,6.34-9.06,11.29-12.3,4.95-3.24,10.91-4.79,18.01-4.79,7.99,0,14.59,1.94,19.66,5.95l4.69-5.95h36.66v1.17c-4.44,0-6.72,3.62-6.72,11v28.22c0,4.79.76,8.28,2.29,10.62,1.39,2.46,3.3,3.63,5.45,3.63,2.67,0,5.58-1.95,8.75-5.83,3.42-5.05,6.22-11.39,8.12-19.16,1.91-7.64,2.92-13.46,2.92-17.48,0-7.38-2.41-11-7.1-11v-1.17h26.77v1.17c-2.41,0-4.06.38-5.07,1.29-1.01.91-1.65,2.07-1.9,3.5s-.38,8.93-.38,22.52.13,22.01.38,24.2c.25,2.2.89,4.15,1.9,5.7,1.02,1.56,2.67,2.59,5.07,3.11v1.03c-6.47,0-11.17-.26-13.83-.78ZM772.48,562.89c-3.93-6.22-9-9.32-15.35-9.32-4.44,0-8.25,1.56-11.29,4.53-3.17,2.98-5.46,6.86-7.11,11.52s-2.41,9.45-2.41,14.37c0,6.86,1.65,13.07,4.82,18.64l31.34-39.74ZM768.92,607.67c3.05-2.72,5.33-6.09,6.85-10.36,1.52-4.15,2.29-8.54,2.29-13.33,0-6.73-1.52-13.08-4.44-19.03l-31.21,39.61c3.68,4.79,8.63,7.12,14.72,7.12,4.69,0,8.63-1.3,11.8-4.01Z"/>
    <path class="cls-2" d="M864.35,613.89v-1.17c2.41,0,4.06-.39,5.07-1.29,1.02-.91,1.65-2.07,1.9-3.5.26-1.42.38-8.93.38-22.52s-.13-22.01-.38-24.21c-.25-2.2-.89-4.14-1.9-5.82-1.01-1.56-2.66-2.59-5.07-2.98v-1.03c6.47,0,11.17.26,13.96.78,2.66.52,4.31,2.07,4.95,4.79.51,2.72.76,7.25.76,13.6v17.48c1.52-8.16,3.81-14.89,6.85-20.32,2.92-5.44,6.34-9.58,10.03-12.3,3.68-2.72,7.23-4.01,10.65-4.01,2.67,0,4.95.91,7.11,2.59,2.03,1.81,3.55,4.53,4.44,8.03l-11.54,11.52c0-4.79-.76-8.28-2.15-10.74-1.52-2.33-3.42-3.5-5.59-3.5-2.66,0-5.58,1.94-8.75,5.83-3.42,5.05-6.22,11.39-8.12,19.03-1.9,7.77-2.92,13.72-2.92,17.99,0,7.12,2.41,10.62,7.11,10.62v1.17h-26.77Z"/>
    <path class="cls-2" d="M939.59,612.07c-5.59-1.17-9.9-3.11-12.94-5.82v-18.25h1.02c.89,6.34,3.55,11.78,7.99,16.44,4.44,4.66,9.52,6.99,15.48,6.99,2.15,0,4.57-.52,7.1-1.42,2.41-.91,4.57-2.33,6.34-4.54,1.65-2.07,2.54-4.79,2.54-8.28,0-2.33-.89-4.27-2.54-5.7-2.79-2.2-7.73-4.4-14.84-6.21-14.21-3.62-21.31-9.58-21.31-17.73,0-4.27,2.15-8.03,6.34-11.26,4.19-3.24,9.9-4.92,16.87-4.92,3.17,0,6.98.52,11.68,1.55,4.69,1.04,8.5,2.72,11.42,5.18v13.85l-1.02.26c-1.14-5.05-3.42-9.32-6.85-12.95-3.55-3.62-8.12-5.44-13.7-5.44-3.68,0-6.6,1.04-8.88,2.98-2.29,2.07-3.42,4.4-3.42,6.86,0,4.66,3.68,7.89,11.17,9.58,7.48,1.81,13.32,3.89,17.63,6.09,6.47,3.5,9.77,8.15,9.77,14.24,0,4.79-1.39,8.54-4.06,11.52-2.79,2.97-6.22,5.18-10.4,6.6-4.19,1.42-8.25,2.2-12.31,2.2-3.17,0-7.61-.65-13.07-1.81Z"/>
  </g>
  <path class="cls-1" d="M151.79,678.32v3.86h-7.33v-3.86h7.33Z"/>
  <path class="cls-1" d="M934.94,678.32v3.86h-7.33v-3.86h7.33Z"/>
</svg>